<?xml version="1.0"?>
<svg xmlns="http://www.w3.org/2000/svg" height="512px" viewBox="-39 0 511 511.936" width="512px" class=""><g><g><path d="m144.421875 439.929688 48 64h-144c-4.410156 0-8-3.601563-8-8v-56c0-35.363282 28.632813-64 64-64h40l-16 16 32 32zm0 0" fill="#94c1ff" data-original="#C1D6D6" class="" style="fill:#C1D6D6" data-old_color="#94c1ff"/><path d="m392.421875 439.929688v56c0 4.398437-3.601563 8-8 8h-144l48-64-16-16 32-32-16-16h40c35.359375 0 64 28.636718 64 64zm0 0" fill="#94c1ff" data-original="#C1D6D6" class="" style="fill:#C1D6D6" data-old_color="#94c1ff"/><path d="m288.421875 375.929688 16 16-32 32 16 16-48 64h-24l24.878906-64 18.640625-48 12.480469-32zm0 0" fill="#94c1ff" data-original="#C1D6D6" class="" style="fill:#C1D6D6" data-old_color="#94c1ff"/><path d="m172.902344 391.929688 18.640625 48 24.878906 64h-24l-48-64 16-16-32-32 32-32zm0 0" fill="#94c1ff" data-original="#C1D6D6" class="" style="fill:#C1D6D6" data-old_color="#94c1ff"/><path d="m192.421875 381.128906 16 18.800782-16.878906 40-18.640625-48zm0 0" fill="#fff" data-original="#FFFFFF" class="" data-old_color="#fff" style="fill:#FFFFFF"/><path d="m224.421875 399.929688 16.878906 40-24.878906 64-24.878906-64 16.878906-40zm0 0" fill="#d7e9ff" data-original="#A0BBC5" class="" style="fill:#A0BBC5" data-old_color="#d7e9ff"/><path d="m240.421875 381.128906-16 18.800782h-16l-16-18.800782 24-13.199218zm0 0" fill="#d7e9ff" data-original="#A0BBC5" class="" style="fill:#A0BBC5" data-old_color="#d7e9ff"/><path d="m259.941406 391.929688-18.640625 48-16.878906-40 16-18.800782zm0 0" fill="#fff" data-original="#FFFFFF" class="" data-old_color="#fff" style="fill:#FFFFFF"/><path d="m176.582031 336.007812h95.839844v23.921876l-12.480469 32-19.519531-10.800782-24-13.199218-24 13.199218-19.519531 10.800782-12.480469-32v-23.921876zm0 0" fill="#fff" data-original="#FFFFFF" class="" data-old_color="#fff" style="fill:#FFFFFF"/><path d="m296.5 224.007812h128c0 35.359376-28.640625 64-64 64-35.277344 0-64-28.640624-64-64zm0 0" fill="#94c1ff" data-original="#C1D6D6" class="" style="fill:#C1D6D6" data-old_color="#94c1ff"/><path d="m256.582031 304.007812v32h-80v-32zm0 0" fill="#94c1ff" data-original="#C1D6D6" class="" style="fill:#C1D6D6" data-old_color="#94c1ff"/><path d="m232.421875 80.007812v224h-31.839844v-224.078124h31.839844zm0 0" fill="#d7e9ff" data-original="#A0BBC5" class="" style="fill:#A0BBC5" data-old_color="#d7e9ff"/><path d="m232.421875 23.929688v24.160156h-31.839844v-24.160156c0-8.808594 7.117188-15.921876 15.917969-15.921876s15.921875 7.121094 15.921875 15.921876zm0 0" fill="#d7e9ff" data-original="#A0BBC5" class="" style="fill:#A0BBC5" data-old_color="#d7e9ff"/><path d="m376.660156 64.007812c0 8.800782-7.117187 15.921876-16 15.921876h-288.160156c-.078125 0-.167969 0-.238281 0-8.71875-.160157-15.761719-7.203126-15.761719-15.921876 0-8.800781 7.121094-15.839843 15.921875-15.917968h288.238281c8.882813 0 16 7.117187 16 15.917968zm0 0" fill="#d7e9ff" data-original="#A0BBC5" class="" style="fill:#A0BBC5" data-old_color="#d7e9ff"/><path d="m8.5 224.007812h128c0 35.359376-28.71875 64-64 64-35.359375 0-64-28.640624-64-64zm0 0" fill="#94c1ff" data-original="#C1D6D6" class="" style="fill:#C1D6D6" data-old_color="#94c1ff"/><g fill="#116fff"><path d="m40.421875 447.953125c-4.425781 0-8-3.578125-8-8 0-39.714844 32.304687-72.015625 72.015625-72.015625 4.421875 0 8 3.574219 8 8 0 4.421875-3.578125 8-8 8-30.886719 0-56.015625 25.125-56.015625 56.015625 0 4.421875-3.578125 8-8 8zm0 0" data-original="#6E8A8A" class="active-path" style="fill:#6E8A8A" data-old_color="#116FFF"/><path d="m392.421875 447.953125c-4.425781 0-8-3.578125-8-8 0-30.875-25.128906-56-56-56-4.425781 0-8-3.578125-8-8 0-4.425781 3.574219-8 8-8 39.703125 0 72 32.292969 72 72 0 4.421875-3.578125 8-8 8zm0 0" data-original="#6E8A8A" class="active-path" style="fill:#6E8A8A" data-old_color="#116FFF"/><path d="m144.429688 383.9375h-39.992188c-4.425781 0-8-3.578125-8-8 0-4.425781 3.574219-8 8-8h39.992188c4.421874 0 8 3.574219 8 8 0 4.421875-3.578126 8-8 8zm0 0" data-original="#6E8A8A" class="active-path" style="fill:#6E8A8A" data-old_color="#116FFF"/><path d="m40.429688 503.9375c-4.417969 0-8-3.578125-8-8l-.007813-55.984375c0-4.417969 3.574219-8 8-8 4.414063 0 8 3.574219 8 8l.007813 55.984375c0 4.414062-3.578126 8-8 8zm0 0" data-original="#6E8A8A" class="active-path" style="fill:#6E8A8A" data-old_color="#116FFF"/><path d="m48.429688 511.9375c-8.824219 0-16-7.175781-16-16 0-4.425781 3.574218-8 8-8 4.421874 0 8 3.574219 8 8v.015625c4.421874 0 8 3.566406 8 7.992187 0 4.414063-3.578126 7.992188-8 7.992188zm0 0" data-original="#6E8A8A" class="active-path" style="fill:#6E8A8A" data-old_color="#116FFF"/><path d="m384.421875 511.9375c-4.425781 0-8-3.578125-8-8 0-4.425781 3.574219-8 8-8h.015625c0-4.425781 3.566406-8 7.992188-8 4.414062 0 7.992187 3.574219 7.992187 8 0 8.824219-7.175781 16-16 16zm0 0" data-original="#6E8A8A" class="active-path" style="fill:#6E8A8A" data-old_color="#116FFF"/><path d="m392.421875 503.9375c-4.425781 0-8-3.578125-8-8v-55.984375c0-4.425781 3.574219-8 8-8 4.421875 0 8 3.574219 8 8v55.984375c0 4.421875-3.578125 8-8 8zm0 0" data-original="#6E8A8A" class="active-path" style="fill:#6E8A8A" data-old_color="#116FFF"/><path d="m384.421875 511.9375h-335.992187c-4.425782 0-8-3.578125-8-8 0-4.425781 3.574218-8 8-8h335.992187c4.421875 0 8 3.574219 8 8 0 4.421875-3.578125 8-8 8zm0 0" data-original="#6E8A8A" class="active-path" style="fill:#6E8A8A" data-old_color="#116FFF"/><path d="m160.421875 367.9375c-4.425781 0-8-3.578125-8-8v-23.875c0-4.421875 3.574219-8 8-8 4.421875 0 8 3.578125 8 8v23.875c0 4.421875-3.578125 8-8 8zm0 0" data-original="#6E8A8A" class="active-path" style="fill:#6E8A8A" data-old_color="#116FFF"/><path d="m272.421875 367.9375c-4.425781 0-8-3.578125-8-8v-23.875c0-4.421875 3.574219-8 8-8 4.421875 0 8 3.578125 8 8v23.875c0 4.421875-3.578125 8-8 8zm0 0" data-original="#6E8A8A" class="active-path" style="fill:#6E8A8A" data-old_color="#116FFF"/><path d="m172.886719 399.953125c-2.824219 0-5.554688-1.496094-7.019531-4.136719-2.132813-3.871094-.726563-8.746094 3.144531-10.871094l43.546875-24.015624c3.871094-2.128907 8.734375-.722657 10.871094 3.140624 2.136718 3.875.726562 8.746094-3.144532 10.875l-43.542968 24.015626c-1.226563.671874-2.554688.992187-3.855469.992187zm0 0" data-original="#6E8A8A" class="active-path" style="fill:#6E8A8A" data-old_color="#116FFF"/><path d="m259.964844 399.953125c-1.304688 0-2.632813-.320313-3.855469-.992187l-43.542969-24.015626c-3.867187-2.136718-5.273437-7-3.144531-10.875 2.144531-3.855468 6.992187-5.261718 10.871094-3.140624l43.542969 24.015624c3.863281 2.132813 5.273437 7 3.144531 10.871094-1.464844 2.648438-4.199219 4.136719-7.015625 4.136719zm0 0" data-original="#6E8A8A" class="active-path" style="fill:#6E8A8A" data-old_color="#116FFF"/><path d="m128.421875 399.953125c-2.046875 0-4.097656-.785156-5.65625-2.34375-3.128906-3.128906-3.128906-8.183594 0-11.3125l32-32.015625c3.128906-3.128906 8.183594-3.128906 11.3125 0 3.125 3.125 3.125 8.183594 0 11.3125l-32 32.015625c-1.5625 1.558594-3.609375 2.34375-5.65625 2.34375zm0 0" data-original="#6E8A8A" class="active-path" style="fill:#6E8A8A" data-old_color="#116FFF"/><path d="m160.421875 431.9375c-2.046875 0-4.097656-.785156-5.65625-2.34375l-32-31.984375c-3.128906-3.128906-3.128906-8.183594 0-11.3125s8.183594-3.128906 11.3125 0l32 31.984375c3.125 3.125 3.125 8.183594 0 11.3125-1.5625 1.558594-3.609375 2.34375-5.65625 2.34375zm0 0" data-original="#6E8A8A" class="active-path" style="fill:#6E8A8A" data-old_color="#116FFF"/><path d="m144.421875 447.9375c-2.046875 0-4.097656-.785156-5.65625-2.34375-3.128906-3.128906-3.128906-8.1875 0-11.3125l16-16c3.128906-3.128906 8.183594-3.128906 11.3125 0 3.125 3.125 3.125 8.183594 0 11.3125l-16 16c-1.5625 1.558594-3.609375 2.34375-5.65625 2.34375zm0 0" data-original="#6E8A8A" class="active-path" style="fill:#6E8A8A" data-old_color="#116FFF"/><path d="m192.429688 511.9375c-2.441407 0-4.832032-1.105469-6.410157-3.203125l-48-64c-2.65625-3.527344-1.933593-8.542969 1.601563-11.191406 3.527344-2.65625 8.535156-1.941407 11.191406 1.601562l48 64c2.65625 3.527344 1.9375 8.542969-1.597656 11.191407-1.433594 1.078124-3.113282 1.601562-4.785156 1.601562zm0 0" data-original="#6E8A8A" class="active-path" style="fill:#6E8A8A" data-old_color="#116FFF"/><path d="m216.421875 511.9375c-3.199219 0-6.226563-1.9375-7.457031-5.105469l-56-144c-1.601563-4.121093.441406-8.753906 4.550781-10.351562 4.113281-1.617188 8.761719.441406 10.351563 4.550781l56 144c1.601562 4.121094-.4375 8.753906-4.550782 10.351562-.953125.386719-1.925781.554688-2.894531.554688zm0 0" data-original="#6E8A8A" class="active-path" style="fill:#6E8A8A" data-old_color="#116FFF"/><path d="m304.421875 399.953125c-2.046875 0-4.097656-.785156-5.65625-2.34375l-32-32.015625c-3.128906-3.128906-3.128906-8.1875 0-11.3125 3.128906-3.128906 8.183594-3.128906 11.3125 0l32 32.015625c3.125 3.128906 3.125 8.183594 0 11.3125-1.5625 1.558594-3.609375 2.34375-5.65625 2.34375zm0 0" data-original="#6E8A8A" class="active-path" style="fill:#6E8A8A" data-old_color="#116FFF"/><path d="m272.421875 431.9375c-2.046875 0-4.097656-.785156-5.65625-2.34375-3.128906-3.128906-3.128906-8.1875 0-11.3125l32-31.984375c3.128906-3.128906 8.183594-3.128906 11.3125 0 3.125 3.128906 3.125 8.183594 0 11.3125l-32 31.984375c-1.5625 1.558594-3.609375 2.34375-5.65625 2.34375zm0 0" data-original="#6E8A8A" class="active-path" style="fill:#6E8A8A" data-old_color="#116FFF"/><path d="m288.421875 447.9375c-2.046875 0-4.097656-.785156-5.65625-2.34375l-16-16c-3.128906-3.128906-3.128906-8.1875 0-11.3125 3.128906-3.128906 8.183594-3.128906 11.3125 0l16 16c3.125 3.125 3.125 8.183594 0 11.3125-1.5625 1.558594-3.609375 2.34375-5.65625 2.34375zm0 0" data-original="#6E8A8A" class="active-path" style="fill:#6E8A8A" data-old_color="#116FFF"/><path d="m240.414062 511.9375c-1.671874 0-3.351562-.523438-4.792968-1.601562-3.535156-2.648438-4.257813-7.664063-1.601563-11.191407l48-64c2.65625-3.535156 7.664063-4.242187 11.195313-1.601562 3.535156 2.648437 4.253906 7.664062 1.597656 11.191406l-48 64c-1.558594 2.097656-3.960938 3.203125-6.398438 3.203125zm0 0" data-original="#6E8A8A" class="active-path" style="fill:#6E8A8A" data-old_color="#116FFF"/><path d="m216.421875 511.9375c-.96875 0-1.945313-.167969-2.898437-.546875-4.117188-1.597656-6.160157-6.230469-4.550782-10.351563l56-144c1.59375-4.117187 6.230469-6.175781 10.351563-4.550781 4.121093 1.601563 6.160156 6.230469 4.554687 10.351563l-56 144c-1.226562 3.160156-4.25 5.097656-7.457031 5.097656zm0 0" data-original="#6E8A8A" class="active-path" style="fill:#6E8A8A" data-old_color="#116FFF"/><path d="m328.421875 383.953125h-40c-4.425781 0-8-3.578125-8-8 0-4.425781 3.574219-8 8-8h40c4.421875 0 8 3.574219 8 8 0 4.421875-3.578125 8-8 8zm0 0" data-original="#6E8A8A" class="active-path" style="fill:#6E8A8A" data-old_color="#116FFF"/><path d="m191.53125 447.9375c-1.039062 0-2.09375-.203125-3.109375-.632812-4.074219-1.71875-5.976563-6.417969-4.257813-10.480469l16.890626-39.984375c1.71875-4.070313 6.414062-5.96875 10.476562-4.253906 4.074219 1.71875 5.976562 6.414062 4.257812 10.476562l-16.886718 39.984375c-1.289063 3.058594-4.25 4.890625-7.371094 4.890625zm0 0" data-original="#6E8A8A" class="active-path" style="fill:#6E8A8A" data-old_color="#116FFF"/><path d="m241.308594 447.953125c-3.121094 0-6.078125-1.832031-7.367188-4.890625l-16.878906-40.015625c-1.722656-4.070313.183594-8.765625 4.253906-10.480469 4.066406-1.726562 8.761719.1875 10.480469 4.257813l16.878906 40.015625c1.722657 4.070312-.183593 8.769531-4.253906 10.480468-1.023437.433594-2.082031.632813-3.113281.632813zm0 0" data-original="#6E8A8A" class="active-path" style="fill:#6E8A8A" data-old_color="#116FFF"/><path d="m224.421875 407.953125h-16c-4.425781 0-8-3.578125-8-8 0-4.425781 3.574219-8 8-8h16c4.421875 0 8 3.574219 8 8 0 4.421875-3.578125 8-8 8zm0 0" data-original="#6E8A8A" class="active-path" style="fill:#6E8A8A" data-old_color="#116FFF"/><path d="m224.421875 407.953125c-1.832031 0-3.679687-.625-5.183594-1.914063-3.371093-2.855468-3.769531-7.910156-.898437-11.269531l16-18.785156c2.855468-3.375 7.90625-3.777344 11.273437-.894531 3.367188 2.855468 3.769531 7.910156.894531 11.269531l-16 18.785156c-1.574218 1.855469-3.832031 2.808594-6.085937 2.808594zm0 0" data-original="#6E8A8A" class="active-path" style="fill:#6E8A8A" data-old_color="#116FFF"/><path d="m208.421875 407.953125c-2.257813 0-4.503906-.953125-6.089844-2.816406l-16-18.785157c-2.863281-3.359374-2.472656-8.414062.898438-11.273437 3.359375-2.871094 8.414062-2.476563 11.269531.898437l16 18.785157c2.863281 3.359375 2.472656 8.414062-.894531 11.269531-1.503907 1.296875-3.34375 1.921875-5.183594 1.921875zm0 0" data-original="#6E8A8A" class="active-path" style="fill:#6E8A8A" data-old_color="#116FFF"/><path d="m272.421875 344.0625h-112c-4.425781 0-8-3.574219-8-8 0-4.421875 3.574219-8 8-8h112c4.421875 0 8 3.578125 8 8 0 4.425781-3.578125 8-8 8zm0 0" data-original="#6E8A8A" class="active-path" style="fill:#6E8A8A" data-old_color="#116FFF"/><path d="m176.550781 344.0625c-4.425781 0-8-3.574219-8-8v-32c0-4.421875 3.574219-8 8-8 4.421875 0 8 3.578125 8 8v32c0 4.417969-3.578125 8-8 8zm0 0" data-original="#6E8A8A" class="active-path" style="fill:#6E8A8A" data-old_color="#116FFF"/><path d="m256.550781 344.0625c-4.425781 0-8-3.574219-8-8v-32c0-4.421875 3.574219-8 8-8 4.421875 0 8 3.578125 8 8v32c0 4.417969-3.578125 8-8 8zm0 0" data-original="#6E8A8A" class="active-path" style="fill:#6E8A8A" data-old_color="#116FFF"/><path d="m256.550781 312.0625h-80c-4.425781 0-8-3.574219-8-8 0-4.421875 3.574219-8 8-8h80c4.421875 0 8 3.578125 8 8 0 4.425781-3.578125 8-8 8zm0 0" data-original="#6E8A8A" class="active-path" style="fill:#6E8A8A" data-old_color="#116FFF"/><path d="m200.550781 312.0625c-4.425781 0-8-3.574219-8-8v-223.984375c0-4.421875 3.574219-8 8-8 4.421875 0 8 3.578125 8 8v223.984375c0 4.417969-3.578125 8-8 8zm0 0" data-original="#6E8A8A" class="active-path" style="fill:#6E8A8A" data-old_color="#116FFF"/><path d="m232.414062 312.0625c-4.425781 0-8-3.574219-8-8v-223.984375c0-4.421875 3.574219-8 8-8 4.421876 0 8 3.578125 8 8v223.984375c0 4.417969-3.578124 8-8 8zm0 0" data-original="#6E8A8A" class="active-path" style="fill:#6E8A8A" data-old_color="#116FFF"/><path d="m232.414062 31.9375c-4.425781 0-8-3.578125-8-8 0-4.378906-3.554687-7.9375-7.929687-7.9375s-7.933594 3.558594-7.933594 7.9375c0 4.421875-3.578125 8-8 8-4.425781 0-8-3.578125-8-8 0-13.195312 10.742188-23.9375 23.933594-23.9375s23.929687 10.742188 23.929687 23.9375c0 4.421875-3.578124 8-8 8zm0 0" data-original="#6E8A8A" class="active-path" style="fill:#6E8A8A" data-old_color="#116FFF"/><path d="m360.699219 87.96875c-4.421875 0-8-3.578125-8-8 0-4.425781 3.578125-8 8-8 4.378906 0 7.9375-3.5625 7.9375-7.9375s-3.558594-7.933594-7.9375-7.933594c-4.421875 0-8-3.578125-8-8 0-4.425781 3.578125-8 8-8 13.195312 0 23.9375 10.742188 23.9375 23.933594s-10.734375 23.9375-23.9375 23.9375zm0 0" data-original="#6E8A8A" class="active-path" style="fill:#6E8A8A" data-old_color="#116FFF"/><path d="m360.699219 56.097656h-288.308594c-4.425781 0-8-3.578125-8-8 0-4.425781 3.574219-8 8-8h288.308594c4.425781 0 8 3.574219 8 8 0 4.421875-3.574219 8-8 8zm0 0" data-original="#6E8A8A" class="active-path" style="fill:#6E8A8A" data-old_color="#116FFF"/><path d="m360.699219 87.96875h-288.4375c-4.425781 0-8-3.578125-8-8 0-4.425781 3.574219-8 8-8h288.449219c4.421874 0 8 3.574219 8 8 0 4.421875-3.585938 8-8.011719 8zm0 0" data-original="#6E8A8A" class="active-path" style="fill:#6E8A8A" data-old_color="#116FFF"/><path d="m72.476562 87.96875c-13.191406 0-23.933593-10.746094-23.933593-23.9375s10.742187-23.933594 23.933593-23.933594c4.425782 0 8 3.574219 8 8 0 4.421875-3.574218 8-8 8-4.375 0-7.933593 3.558594-7.933593 7.933594s3.558593 7.9375 7.933593 7.9375c4.425782 0 8 3.574219 8 8 0 4.421875-3.574218 8-8 8zm0 0" data-original="#6E8A8A" class="active-path" style="fill:#6E8A8A" data-old_color="#116FFF"/><path d="m200.550781 56.097656c-4.425781 0-8-3.578125-8-8v-24.160156c0-4.425781 3.574219-8 8-8 4.421875 0 8 3.574219 8 8v24.160156c0 4.414063-3.578125 8-8 8zm0 0" data-original="#6E8A8A" class="active-path" style="fill:#6E8A8A" data-old_color="#116FFF"/><path d="m232.414062 56.097656c-4.425781 0-8-3.578125-8-8v-24.160156c0-4.425781 3.574219-8 8-8 4.421876 0 8 3.574219 8 8v24.160156c0 4.414063-3.578124 8-8 8zm0 0" data-original="#6E8A8A" class="active-path" style="fill:#6E8A8A" data-old_color="#116FFF"/><path d="m72.46875 296.046875c-39.703125 0-72-32.292969-72-72 0-4.421875 3.578125-8 8-8 4.425781 0 8 3.578125 8 8 0 30.875 25.128906 56 56 56s56-25.125 56-56c0-4.421875 3.578125-8 8-8 4.425781 0 8 3.578125 8 8 0 39.707031-32.296875 72-72 72zm0 0" data-original="#6E8A8A" class="active-path" style="fill:#6E8A8A" data-old_color="#116FFF"/><path d="m136.46875 232.046875h-128c-4.421875 0-8-3.574219-8-8 0-4.421875 3.578125-8 8-8h128c4.425781 0 8 3.578125 8 8 0 4.425781-3.574219 8-8 8zm0 0" data-original="#6E8A8A" class="active-path" style="fill:#6E8A8A" data-old_color="#116FFF"/><path d="m136.476562 232.046875c-3.0625 0-5.984374-1.765625-7.3125-4.742187l-64.207031-144.082032c-1.808593-4.039062.015625-8.765625 4.046875-10.558594 4.058594-1.816406 8.769532.015626 10.5625 4.046876l64.207032 144.082031c1.808593 4.039062-.015626 8.765625-4.046876 10.558593-1.058593.472657-2.160156.695313-3.25.695313zm0 0" data-original="#6E8A8A" class="active-path" style="fill:#6E8A8A" data-old_color="#116FFF"/><path d="m8.460938 232.046875c-1.078126 0-2.175782-.214844-3.230469-.6875-4.042969-1.792969-5.867188-6.511719-4.074219-10.558594l63.792969-144.082031c1.785156-4.03125 6.503906-5.855469 10.550781-4.070312 4.042969 1.792968 5.855469 6.503906 4.074219 10.550781l-63.792969 144.089843c-1.320312 2.984376-4.25 4.757813-7.320312 4.757813zm0 0" data-original="#6E8A8A" class="active-path" style="fill:#6E8A8A" data-old_color="#116FFF"/><path d="m360.53125 296.046875c-39.703125 0-72-32.292969-72-72 0-4.421875 3.578125-8 8-8 4.425781 0 8 3.578125 8 8 0 30.875 25.128906 56 56 56 30.875 0 56-25.125 56-56 0-4.421875 3.578125-8 8-8 4.425781 0 8 3.578125 8 8 0 39.707031-32.292969 72-72 72zm0 0" data-original="#6E8A8A" class="active-path" style="fill:#6E8A8A" data-old_color="#116FFF"/><path d="m424.53125 232.046875h-128c-4.421875 0-8-3.574219-8-8 0-4.421875 3.578125-8 8-8h128c4.425781 0 8 3.578125 8 8 0 4.425781-3.574219 8-8 8zm0 0" data-original="#6E8A8A" class="active-path" style="fill:#6E8A8A" data-old_color="#116FFF"/><path d="m424.542969 232.046875c-3.066407 0-5.984375-1.765625-7.3125-4.742187l-64.210938-144.082032c-1.804687-4.039062.015625-8.765625 4.050781-10.558594 4.054688-1.816406 8.765626.015626 10.558594 4.046876l64.207032 144.082031c1.808593 4.039062-.015626 8.765625-4.046876 10.558593-1.0625.472657-2.160156.695313-3.246093.695313zm0 0" data-original="#6E8A8A" class="active-path" style="fill:#6E8A8A" data-old_color="#116FFF"/><path d="m296.523438 232.046875c-1.078126 0-2.175782-.214844-3.230469-.6875-4.039063-1.792969-5.855469-6.503906-4.070313-10.550781l63.789063-144.082032c1.792969-4.03125 6.511719-5.855468 10.554687-4.070312 4.039063 1.785156 5.855469 6.503906 4.070313 10.550781l-63.792969 144.082031c-1.320312 2.984376-4.246094 4.757813-7.320312 4.757813zm0 0" data-original="#6E8A8A" class="active-path" style="fill:#6E8A8A" data-old_color="#116FFF"/></g></g></g> </svg>
