<?xml version="1.0"?>
<svg xmlns="http://www.w3.org/2000/svg" height="512px" viewBox="0 -59 512.001 512" width="512px" class=""><g><path d="m507.605469 143.394531-139-139c-5.859375-5.859375-15.355469-5.859375-21.214844 0l-225.40625 225.40625c-5.859375 5.859375-5.859375 15.355469 0 21.214844l26.390625 26.390625h-66.023438c-8.285156 0-15 6.714844-15 15s6.714844 15 15 15h96.023438l82.609375 82.609375c2.8125 2.8125 6.628906 4.394531 10.605469 4.394531 3.980468 0 7.796875-1.582031 10.609375-4.394531l225.40625-225.410156c2.816406-2.8125 4.394531-6.625 4.394531-10.605469 0-3.976562-1.578125-7.792969-4.394531-10.605469zm-345.40625 105.410157 102.050781-24.199219-5.964844 120.285156zm300.28125-108.109376-120.285157 5.964844 24.199219-102.050781zm-160.144531 44.046876-121.734376 28.867187 150.59375-150.59375zm-7.691407 32.65625 23.613281-5.597657c5.515626-1.308593 9.824219-5.617187 11.132813-11.136719l5.597656-23.609374 123.890625-6.144532-170.378906 170.378906zm0 0" data-original="#000000" class="active-path" data-old_color="#000000" fill="#6E8A8A"/><path d="m82.351562 66.113281h155.945313c8.285156 0 15-6.71875 15-15 0-8.285156-6.714844-15-15-15h-155.945313c-8.285156 0-15 6.714844-15 15 0 8.28125 6.714844 15 15 15zm0 0" data-original="#000000" class="active-path" data-old_color="#000000" fill="#6E8A8A"/><path d="m34.96875 129.234375h92.820312c8.285157 0 15-6.714844 15-15 0-8.28125-6.714843-15-15-15h-92.820312c-8.285156 0-15 6.71875-15 15 0 8.285156 6.714844 15 15 15zm0 0" data-original="#000000" class="active-path" data-old_color="#000000" fill="#6E8A8A"/><path d="m170.945312 337.40625h-155.945312c-8.285156 0-15 6.714844-15 15s6.714844 15 15 15h155.945312c8.285157 0 15-6.714844 15-15s-6.714843-15-15-15zm0 0" data-original="#000000" class="active-path" data-old_color="#000000" fill="#6E8A8A"/></g> </svg>
