<?xml version="1.0"?>
<svg xmlns="http://www.w3.org/2000/svg" id="Layer_5" enable-background="new 0 0 64 64" height="512px" viewBox="0 0 64 64" width="512px" class=""><g><g><path d="m54.815 22-20.955-12.49c-.56-.33-1.2-.51-1.86-.51-.65 0-1.3.18-1.86.51l-20.955 12.49h-.185v.11 28.89 7.857l-.07.073.07.07h12 34v-1-35.89-.11z" fill="#e6e9ed" data-original="#C1D6D6" class="" style="fill:#C1D6D6" data-old_color="#e6e9ed"/><path d="m51 54c2.21 0 4 1.79 4 4v1 3h-34v-3-1c0-2.21 1.79-4 4-4z" fill="#969faa" data-original="#6E8A8A" class="" style="fill:#6E8A8A" data-old_color="#969faa"/><path d="m25 52c0-2.21 1.79-4 4-4h3 15c2.21 0 4 1.79 4 4v2h-26z" fill="#aab2bd" data-original="#7896A1" class="" style="fill:#7896A1" data-old_color="#aab2bd"/><path d="m27 40-18.07 18.93-2.1 2.2c-.53.56-1.26.87-2.03.87-.78 0-1.48-.31-1.98-.82-.51-.5-.82-1.2-.82-1.98 0-.77.31-1.5.87-2.03l6.29-6 14.84-14.17z" fill="#d3a06c" data-original="#7896A1" class="" style="fill:#7896A1" data-old_color="#d3a06c"/><path d="m40 35-9 9-4-4-3-3-4-4 9-9z" fill="#cf9e76" data-original="#A0BBC5" class="" style="fill:#A0BBC5" data-old_color="#cf9e76"/><path d="m43.29 34.29c.46.46.71 1.07.71 1.71s-.25 1.25-.71 1.71l-9.58 9.58c-.46.46-1.07.71-1.71.71s-1.25-.25-1.71-.71l-1.29-1.29 2-2 9-9 2-2z" fill="#b27946" data-original="#6E8A8A" class="" style="fill:#6E8A8A" data-old_color="#b27946"/><path d="m31 22-2 2-9 9-2 2-1.29-1.29c-.46-.46-.71-1.07-.71-1.71s.25-1.25.71-1.71l9.58-9.58c.46-.46 1.07-.71 1.71-.71s1.25.25 1.71.71z" fill="#b27946" data-original="#6E8A8A" class="" style="fill:#6E8A8A" data-old_color="#b27946"/><path d="m56 5v10.72l-6-3.58v-7.14z" fill="#ccd1d9" data-original="#A0BBC5" class="" style="fill:#A0BBC5" data-old_color="#ccd1d9"/><path d="m60.53 18.42c1.42.84 1.89 2.69 1.05 4.11-.54.91-1.53 1.47-2.58 1.47-.54 0-1.07-.15-1.53-.42l-2.47-1.47-21.14-12.6c-.56-.33-1.2-.51-1.86-.51-.65 0-1.3.18-1.86.51l-21.14 12.6-2.47 1.47c-.46.27-.99.42-1.53.42-1.05 0-2.04-.56-2.58-1.47-.84-1.42-.37-3.27 1.05-4.11l26.67-15.91c.56-.33 1.21-.51 1.86-.51.66 0 1.3.18 1.86.51l16.14 9.63 6 3.58z" fill="#ff826e" data-original="#20262B" class="" style="fill:#20262B" data-old_color="#ff826e"/><path d="m41.708 18.441h2v2h-2z" transform="matrix(.512 -.859 .859 .512 4.145 46.177)" data-original="#000000" class="active-path" style="fill:#000000"/><path d="m38.272 16.393h2v2h-2z" transform="matrix(.512 -.859 .859 .512 4.227 42.226)" data-original="#000000" class="active-path" style="fill:#000000"/><path d="m45.145 20.488h2v2h-2z" transform="matrix(.512 -.859 .859 .512 4.064 50.128)" data-original="#000000" class="active-path" style="fill:#000000"/><path d="m11.836 23.382h2.328v2h-2.328z" transform="matrix(.859 -.512 .512 .859 -10.648 10.09)" data-original="#000000" class="active-path" style="fill:#000000"/><path d="m14.098 18.913h12.805v2h-12.805z" transform="matrix(.859 -.512 .512 .859 -7.303 13.299)" data-original="#000000" class="active-path" style="fill:#000000"/><path d="m62.875 20.01c-.265-1.036-.917-1.907-1.833-2.45l-4.042-2.41v-11.15h-8v6.378l-14.628-8.725c-1.433-.854-3.311-.854-4.743 0l-26.669 15.906c-.918.544-1.57 1.415-1.834 2.451-.265 1.036-.111 2.112.433 3.03.717 1.209 2.036 1.96 3.442 1.96.717 0 1.422-.193 2.041-.561l.958-.57v27.022l-5.823 5.559c-.748.713-1.177 1.716-1.177 2.749 0 2.096 1.705 3.801 3.801 3.801 1.033 0 2.036-.429 2.75-1.177l1.74-1.823h10.709v3h36v-4-1-34.131l.96.572c.617.366 1.323.559 2.04.559 1.406 0 2.725-.751 3.441-1.96.544-.918.699-1.994.434-3.03zm-11.875-14.01h4v7.957l-4-2.386zm-44.896 54.442c-.338.355-.813.558-1.303.558-.993 0-1.801-.808-1.801-1.801 0-.49.203-.965.558-1.303l20.426-19.498 1.619 1.619zm11.896-26.856-.586-.586c-.263-.263-.414-.628-.414-1s.151-.737.414-1l9.586-9.586c.263-.263.628-.414 1-.414s.737.151 1 .414l.586.586zm11-8.172 9.586 9.586-7.586 7.586-9.586-9.586zm21 27.586h-24v-1c0-1.654 1.346-3 3-3h18c1.654 0 3 1.346 3 3zm-19-6.414-.586-.586 11.586-11.586.586.586c.263.263.414.628.414 1s-.151.737-.414 1l-9.586 9.586c-.526.526-1.474.526-2 0zm-11 11.414h-8.8l15.816-16.569 2.57 2.569-2 2 1.038 1.038c-2.579.196-4.624 2.334-4.624 4.962v1.101c-2.279.465-4 2.485-4 4.899zm34 3h-32v-3c0-1.654 1.346-3 3-3h26c1.654 0 3 1.346 3 3v1zm0-6.974c-.584-.442-1.257-.773-2-.924v-1.102c0-2.757-2.243-5-5-5h-11.586l8.586-8.586c.645-.645 1-1.502 1-2.414s-.355-1.77-1-2.414l-2-2-2 2-9.586-9.586 2-2-2-2c-1.289-1.29-3.539-1.29-4.828 0l-9.586 9.586c-.645.645-1 1.502-1 2.414s.355 1.77 1 2.414l2 2 2-2 2.569 2.569-12.569 11.999v-26.305l20.654-12.306c.813-.484 1.879-.484 2.694 0l20.652 12.306zm6.721-32.006c-.541.913-1.83 1.241-2.739.702l-23.61-14.069c-.717-.427-1.537-.653-2.372-.653s-1.654.226-2.371.653l-23.608 14.067c-.915.542-2.2.212-2.741-.701-.271-.458-.348-.996-.216-1.514.133-.519.458-.954.919-1.228l26.671-15.906c.812-.485 1.879-.485 2.693 0l26.673 15.908c.459.272.785.708.917 1.226s.056 1.057-.216 1.515z" data-original="#000000" class="active-path" style="fill:#000000"/><path d="m50 57h2v2h-2z" data-original="#000000" class="active-path" style="fill:#000000"/><path d="m42 57h2v2h-2z" data-original="#000000" class="active-path" style="fill:#000000"/><path d="m46 57h2v2h-2z" data-original="#000000" class="active-path" style="fill:#000000"/><path d="m50 40h2v2h-2z" data-original="#000000" class="active-path" style="fill:#000000"/><path d="m50 36h2v2h-2z" data-original="#000000" class="active-path" style="fill:#000000"/><path d="m50 44h2v2h-2z" data-original="#000000" class="active-path" style="fill:#000000"/></g></g> </svg>
