<?xml version="1.0"?>
<svg xmlns="http://www.w3.org/2000/svg" height="512px" viewBox="0 0 64 64" width="512px" class=""><g><g id="Filled_outline" data-name="Filled outline"><path d="m46 17h-12l-2-12a15.389 15.389 0 0 1 8-2 15.389 15.389 0 0 1 8 2z" fill="#d3843d" data-original="#D3843D" class="" style="fill:#6E8A8A" data-old_color="#d3843d"/><path d="m12 22h14v6h-14z" fill="#b11e48" transform="matrix(0 1 -1 0 44 6)" data-original="#B11E48" class="" style="fill:#6E8A8A" data-old_color="#b11e48"/><path d="m52.123 23a2 2 0 0 0 -2-2h-2a2 2 0 0 0 0-4h-14.123l-.333-2h-4.667l-4 5h-3v10h4l4 3h18.123a2 2 0 0 0 0-4h1a2 2 0 0 0 0-4h1a2 2 0 0 0 2-2z" fill="#ffd782" data-original="#FFD782" class="" style="fill:#F9E0A6" data-old_color="#ffd782"/><path d="m6 18h10v14h-10z" fill="#dd3e46" data-original="#DD3E46" class="active-path" style="fill:#C1D6D6" data-old_color="#dd3e46"/><path d="m55 57c0-20-6.877-24-6.877-24h-16.123s-7 5-7 24h-1a2 2 0 0 0 -2 2 2 2 0 0 0 2 2h32a2 2 0 0 0 2-2 2 2 0 0 0 -2-2z" fill="#d3843d" data-original="#D3843D" class="" style="fill:#6E8A8A" data-old_color="#d3843d"/><path d="m9 21h2v2h-2z" fill="#f4f4e6" data-original="#F4F4E6" class=""/><path d="m9 25h2v2h-2z" fill="#f4f4e6" data-original="#F4F4E6" class=""/><ellipse cx="40" cy="47" fill="#fcf05a" rx="9" ry="10" data-original="#FCF05A" class="" style="fill:#C1D6D6" data-old_color="#fcf05a"/><path d="m23 33v-2h2.667l3.733 2.8a1 1 0 0 0 .317.154c-2.139 2.753-5.543 9.14-5.711 22.046h-.006a3 3 0 0 0 0 6h32a3 3 0 0 0 0-6h-.006c-.167-14.338-3.916-20.4-6-22.671a2.973 2.973 0 0 0 .745-3.8 3 3 0 0 0 1-4 3 3 0 0 0 -.824-5.423 3 3 0 0 0 -2.792-4.106h-.943l1.806-10.835a1 1 0 0 0 -.431-1 16.321 16.321 0 0 0 -8.555-2.165 16.321 16.321 0 0 0 -8.555 2.168 1 1 0 0 0 -.431 1l1.472 8.832h-3.486a1 1 0 0 0 -.781.375l-3.699 4.625h-1.52v-2h-18v16zm33 25a1 1 0 0 1 0 2h-32a1 1 0 0 1 0-2h7v-2h-4.99c.211-15.453 5.244-20.971 6.356-22h15.434c1.043.841 5.994 5.7 6.191 22h-1.991v2zm-16-54a15.524 15.524 0 0 1 6.9 1.528l-1.747 10.472h-2.872l1.689-6.757-1.94-.486-1.811 7.243h-.438l-1.811-7.243-1.94.486 1.689 6.757h-2.872l-1.747-10.475a15.383 15.383 0 0 1 6.9-1.525zm-15 17a1 1 0 0 0 .781-.375l3.699-4.625h3.339l.2 1.165a1 1 0 0 0 .981.835h14.123a1 1 0 0 1 0 2h-12.123v2h14.123a1 1 0 0 1 0 2h-14.123v2h13.123a1 1 0 0 1 0 2h-13.123v2h12.123a1 1 0 0 1 0 2h-17.79l-3.733-2.8a1 1 0 0 0 -.6-.2h-3v-8zm-8-2h4v12h-4zm-10 12v-12h8v12z" data-original="#000000" class="" style="fill:#000000"/><path d="m9 21h2v2h-2z" data-original="#000000" class="" style="fill:#000000"/><path d="m9 25h2v2h-2z" data-original="#000000" class="" style="fill:#000000"/><path d="m40 36c-5.514 0-10 4.935-10 11s4.486 11 10 11 10-4.935 10-11-4.486-11-10-11zm0 20c-4.411 0-8-4.038-8-9s3.589-9 8-9 8 4.038 8 9-3.589 9-8 9z" data-original="#000000" class="" style="fill:#000000"/><path d="m41 46h-2a1 1 0 0 1 0-2h4v-2h-2v-2h-2v2a3 3 0 0 0 0 6h2a1 1 0 0 1 0 2h-4v2h2v2h2v-2a3 3 0 0 0 0-6z" data-original="#000000" class="" style="fill:#000000"/><path d="m48 56h2v2h-2z" data-original="#000000" class="" style="fill:#000000"/></g></g> </svg>
